<svg preserveAspectRatio="none" width="100%" height="100%" overflow="visible" style="display: block;" viewBox="0 0 12.0059 15.1045" fill="none" xmlns="http://www.w3.org/2000/svg">
<path id="Subtract" d="M5.99316 0C6.88393 0 7.69443 0.1653 8.42383 0.495117C9.15951 0.824928 9.79209 1.30284 10.3213 1.92871C10.857 2.55465 11.2701 3.3118 11.5605 4.2002C11.8575 5.08194 12.0059 6.08494 12.0059 7.20898V7.90527C12.0059 9.02254 11.8607 10.0256 11.5703 10.9141C11.2799 11.8024 10.87 12.5596 10.3408 13.1855C9.81163 13.8047 9.17902 14.2796 8.44336 14.6094C7.71398 14.9392 6.90344 15.1045 6.0127 15.1045C5.12838 15.1045 4.31788 14.9392 3.58203 14.6094C2.85279 14.2796 2.22023 13.8047 1.68457 13.1855C1.14894 12.5596 0.732423 11.8024 0.435547 10.9141C0.145125 10.0256 0 9.02253 0 7.90527V7.20898C0 6.08496 0.145104 5.08192 0.435547 4.2002C0.725966 3.31186 1.13587 2.55463 1.66504 1.92871C2.20079 1.30273 2.83408 0.824934 3.56348 0.495117C4.29924 0.16538 5.10899 1.48939e-05 5.99316 0ZM6.78223 1.00195C6.68244 1.15461 6.46004 1.38446 6.33301 1.62793C6.21049 1.87192 5.82918 2.51941 5.6582 2.71387C5.48948 2.90768 5.37524 3.05071 5.30273 3.33203C5.23819 3.61455 4.99899 3.55391 4.99707 3.77441C5.00435 3.99289 4.69674 4.39765 4.6582 4.89941C4.6403 5.3947 4.37908 5.44797 4.32227 5.95703C4.31343 6.06993 4.33778 6.17422 4.37988 6.26562C4.53273 6.59975 4.89119 6.73548 4.94531 7.04785C5.03108 7.45014 4.88595 7.62544 5.25781 7.90625C5.29939 7.93568 5.34474 7.97122 5.3916 8.00977C5.79751 8.33082 6.08127 8.72545 6.21289 9.01953C6.22549 9.04316 6.23689 9.06916 6.24707 9.09668C6.37285 9.43446 6.28575 9.92404 6.32129 10.167C6.35436 10.4348 6.40319 10.8342 6.3916 11.6104C6.35385 12.387 6.24477 12.356 6.21094 12.502C6.17606 12.6457 6.25949 12.8086 6.1543 13.0459C6.05723 13.2866 6.07748 13.3859 6.05371 13.6006C6.03876 13.7093 5.98094 13.8614 5.91211 14.0527C5.86593 14.1781 5.84543 14.2094 5.90625 14.083C6.02156 13.8431 6.17697 13.5514 6.25879 13.335C6.40173 12.953 6.43378 12.8539 6.62891 12.4717C6.82254 12.0871 7.22958 11.2359 7.46094 10.5537C7.64747 10.025 7.63165 9.38477 7.50684 8.78516C7.47192 8.61242 7.42883 8.44283 7.38477 8.27832C7.20587 7.59419 6.70052 7.15966 6.44922 6.93164C6.41241 6.89816 6.3787 6.86646 6.34766 6.83691C6.13722 6.636 6.07226 6.27594 6.03223 5.91699C6.01572 5.79514 5.99575 5.66619 5.96387 5.53711C5.84366 5.01736 5.42263 4.82103 5.76074 4.24414C6.07889 3.67568 5.78542 3.4426 6.00781 3.01855C6.21404 2.59158 6.20859 2.31618 6.35547 1.9248C6.50795 1.54095 6.55461 1.5319 6.6709 1.24219C6.73847 1.09052 6.80957 0.974402 6.86035 0.894531L6.86426 0.887695C6.84248 0.919031 6.81831 0.95099 6.78223 1.00195Z" fill="var(--fill-0, #964023)"/>
</svg>
