<svg preserveAspectRatio="none" width="100%" height="100%" overflow="visible" style="display: block;" viewBox="0 0 12.4117 13.469" fill="none" xmlns="http://www.w3.org/2000/svg">
<path id="Vector" d="M3.56867 11.419H1.979C1.76733 11.419 1.57583 11.3683 1.4045 11.267C1.23317 11.1658 1.09594 11.0258 0.992833 10.8472L0.149333 9.33567C0.0497778 9.16278 0 8.97939 0 8.7855C0 8.59161 0.0497778 8.40756 0.149333 8.23333L0.980167 6.7345L0.149333 5.23567C0.0497778 5.06278 0 4.87939 0 4.6855C0 4.49161 0.0497778 4.30756 0.149333 4.13333L0.992833 2.62183C1.09594 2.44317 1.23317 2.30317 1.4045 2.20183C1.57583 2.10061 1.76733 2.05 1.979 2.05H3.56867L4.4135 0.567833C4.51317 0.392056 4.64839 0.2535 4.81917 0.152167C4.98983 0.0507223 5.182 0 5.39567 0H7.016C7.22967 0 7.42183 0.0507223 7.5925 0.152167C7.76328 0.2535 7.89983 0.392056 8.00217 0.567833L8.8435 2.05H10.4327C10.6443 2.05 10.8358 2.10061 11.0072 2.20183C11.1785 2.30317 11.3157 2.44317 11.4188 2.62183L12.2663 4.13333C12.3632 4.30622 12.4117 4.48961 12.4117 4.6835C12.4117 4.87739 12.3619 5.06144 12.2623 5.23567L11.4355 6.7345L12.2623 8.23333C12.3619 8.40622 12.4117 8.58961 12.4117 8.7835C12.4117 8.97739 12.3632 9.16145 12.2663 9.33567L11.4188 10.8472C11.3157 11.0258 11.1785 11.1658 11.0072 11.267C10.8358 11.3683 10.6443 11.419 10.4327 11.419H8.8435L8.00217 12.9012C7.89983 13.0769 7.76328 13.2155 7.5925 13.3168C7.42183 13.4183 7.22967 13.469 7.016 13.469H5.39567C5.182 13.469 4.98983 13.4183 4.81917 13.3168C4.64839 13.2155 4.51317 13.0769 4.4135 12.9012L3.56867 11.419ZM8.868 6.18333H10.4493L11.3135 4.6845L10.4478 3.18567H8.86633L8.00217 4.6845L8.868 6.18333ZM5.41367 8.2H6.99933L7.8635 6.7345L7.002 5.269H5.41633L4.55217 6.7345L5.41367 8.2ZM5.41817 4.13333H6.99933L7.8595 2.6345L6.99833 1.13567H5.41233L4.55217 2.6345L5.41817 4.13333ZM4.43017 4.6845L3.56417 3.18567H1.983L1.11883 4.6845L1.98483 6.18333H3.566L4.43017 4.6845ZM4.43017 8.7845L3.5475 7.28567H1.96633L1.10217 8.7845L1.98483 10.2833H3.566L4.43017 8.7845ZM5.41233 9.33567L4.55217 10.8345L5.41333 12.3333H6.99933L7.8595 10.8345L6.9935 9.33567H5.41233ZM8.86817 10.2833H10.4493L11.3135 8.7845L10.4475 7.28567H8.86633L8.05217 8.7845L8.86817 10.2833Z" fill="var(--fill-0, white)"/>
</svg>
