<svg preserveAspectRatio="none" width="100%" height="100%" overflow="visible" style="display: block;" viewBox="0 0 12.2033 12.2033" fill="none" xmlns="http://www.w3.org/2000/svg">
<path id="Vector" d="M2.6365 10.0678H9.56283C9.70517 10.0678 9.82422 10.0196 9.92 9.92317C10.0159 9.82683 10.0638 9.70739 10.0638 9.56483C10.0638 9.42239 10.0159 9.30394 9.92 9.2095C9.82422 9.11505 9.70517 9.06783 9.56283 9.06783H2.6365C2.49417 9.06783 2.37511 9.116 2.27933 9.21233C2.18344 9.30878 2.1355 9.42822 2.1355 9.57067C2.1355 9.71322 2.18344 9.83172 2.27933 9.92617C2.37511 10.0206 2.49417 10.0678 2.6365 10.0678ZM1.1355 12.2033C0.828833 12.2033 0.562944 12.0907 0.337833 11.8655C0.112611 11.6404 0 11.3745 0 11.0678V1.1395C0 0.831722 0.112611 0.564888 0.337833 0.338999C0.562944 0.112999 0.828833 0 1.1355 0H11.0638C11.3716 0 11.6384 0.112999 11.8643 0.338999C12.0903 0.564888 12.2033 0.831722 12.2033 1.1395V11.0678C12.2033 11.3745 12.0903 11.6404 11.8643 11.8655C11.6384 12.0907 11.3716 12.2033 11.0638 12.2033H1.1355ZM1.1355 11.0678H11.0638V1.1395H1.1355V11.0678Z" fill="var(--fill-0, white)"/>
</svg>
