<svg preserveAspectRatio="none" width="100%" height="100%" overflow="visible" style="display: block;" viewBox="0 0 14.7143 14.7143" fill="none" xmlns="http://www.w3.org/2000/svg">
<path id="Vector" d="M10.8727 14.1467V12.0083H3.84167C3.535 12.0083 3.26906 11.8957 3.04383 11.6705C2.81861 11.4453 2.706 11.1793 2.706 10.8727V3.84167H0.567667C0.407444 3.84167 0.272778 3.78678 0.163667 3.677C0.0545556 3.56733 0 3.43194 0 3.27083C0 3.10983 0.0545556 2.97544 0.163667 2.86767C0.272778 2.75989 0.407444 2.706 0.567667 2.706H2.706V0.567667C2.706 0.407444 2.76089 0.272778 2.87067 0.163667C2.98033 0.0545557 3.11572 0 3.27683 0C3.43783 0 3.57222 0.0545557 3.68 0.163667C3.78778 0.272778 3.84167 0.407444 3.84167 0.567667V10.8727H14.1467C14.3069 10.8727 14.4416 10.9276 14.5507 11.0373C14.6598 11.147 14.7143 11.2824 14.7143 11.4435C14.7143 11.6045 14.6598 11.7389 14.5507 11.8467C14.4416 11.9544 14.3069 12.0083 14.1467 12.0083H12.0083V14.1467C12.0083 14.3069 11.9534 14.4416 11.8437 14.5507C11.734 14.6598 11.5986 14.7143 11.4375 14.7143C11.2765 14.7143 11.1421 14.6598 11.0343 14.5507C10.9266 14.4416 10.8727 14.3069 10.8727 14.1467ZM10.8727 9.87267V3.84167H4.84167V2.706H10.8727C11.1793 2.706 11.4453 2.81861 11.6705 3.04383C11.8957 3.26906 12.0083 3.535 12.0083 3.84167V9.87267H10.8727Z" fill="var(--fill-0, white)"/>
</svg>
