<svg width="47" height="50" viewBox="0 0 47 50" fill="none" xmlns="http://www.w3.org/2000/svg">
<path opacity="0.4" d="M32.9965 8.08314C36.491 10.1007 38.6168 13.796 39.189 18.1953C39.7612 22.5951 38.7722 27.6711 36.0611 32.3669C33.35 37.0627 29.4485 40.4572 25.3521 42.1615C21.2561 43.8656 16.9929 43.8723 13.4985 41.8547C10.0042 39.8372 7.87902 36.1422 7.3068 31.7431C6.73459 27.3433 7.72357 22.2673 10.4347 17.5715C13.1458 12.8757 17.0473 9.4812 21.1437 7.77684C25.2396 6.07282 29.5021 6.06584 32.9965 8.08314Z" fill="#391C0E" stroke="white" stroke-width="1.00382"/>
<path opacity="0.4" d="M28.1454 17.5669C29.4321 15.2777 30.8708 10.7483 31.2322 10.7087C31.5937 10.6691 31.5067 17.021 29.7613 19.9692C26.1509 26.0671 23.9107 24.3112 20.5816 28.6979C17.4736 32.7934 16.077 39.3576 15.573 39.3762C15.069 39.3948 15.894 31.3657 18.7052 26.6613C21.4782 22.0207 25.497 22.2787 28.1454 17.5669Z" fill="white" stroke="#F5F6F0" stroke-width="0.0218221"/>
</svg>
