<svg preserveAspectRatio="none" width="100%" height="100%" overflow="visible" style="display: block;" viewBox="0 0 87.8509 23.0586" fill="none" xmlns="http://www.w3.org/2000/svg">
<g id="logo">
<g id="COFFEE">
<path id="Vector" d="M76.0284 22.8962V0.162384H87.85V3.73484H79.6658V9.77554H84.7972V13.413H79.6658V19.2913H87.85V22.8962H76.0284Z" fill="var(--fill-0, white)"/>
<path id="Vector_2" d="M61.6087 22.8962V0.162384H73.4303V3.73484H65.2461V9.77554H70.3774V13.413H65.2461V19.2913H73.4303V22.8962H61.6087Z" fill="var(--fill-0, white)"/>
<path id="Vector_3" d="M47.4812 22.8637V0.162384H59.3028V3.73484H51.1186V9.77554H56.25V13.413H51.1186V22.8637H47.4812Z" fill="var(--fill-0, white)"/>
<path id="Vector_4" d="M33.3538 22.8637V0.162384H45.1754V3.73484H36.9912V9.77554H42.1225V13.413H36.9912V22.8637H33.3538Z" fill="var(--fill-0, white)"/>
<path id="Vector_5" d="M16.2384 16.5632V5.87832C16.2384 4.7308 16.7256 3.56163 17.6999 2.37081C18.999 0.811922 20.6445 0.0216513 22.6364 0V3.60494C21.5105 3.62659 20.6661 4.23282 20.1032 5.42364C19.93 5.81336 19.8434 6.13813 19.8434 6.39795V16.5632C19.8434 17.7324 20.4496 18.5984 21.6621 19.1614C22.0302 19.3346 22.3441 19.4212 22.6039 19.4212V23.0586C21.3698 23.0586 20.1357 22.6147 18.9016 21.727C17.1478 20.428 16.2601 18.7067 16.2384 16.5632ZM24.3901 23.0586V19.4212C24.9531 19.4212 25.5377 19.1614 26.1439 18.6417C26.7934 18.0572 27.129 17.3643 27.1507 16.5632V6.39795C27.1507 5.74841 26.8692 5.12052 26.3063 4.51429C25.765 3.9297 25.1263 3.62659 24.3901 3.60494V0C26.5769 0 28.3307 0.94183 29.6514 2.82549C30.4092 3.90805 30.7881 4.92566 30.7881 5.87832V16.5632C30.7881 18.9665 29.7164 20.8069 27.5729 22.0843C26.447 22.7338 25.3861 23.0586 24.3901 23.0586Z" fill="var(--fill-0, white)"/>
<path id="Vector_6" d="M0 17.0179V6.07318C0 5.12052 0.303118 4.13539 0.909353 3.11778C2.14347 1.03926 3.98383 0 6.43042 0V3.60494C5.65098 3.62659 4.97979 3.8864 4.41686 4.38438C3.87558 4.92566 3.60494 5.4886 3.60494 6.07318V17.0179C3.60494 17.2128 3.66989 17.4617 3.7998 17.7649C4.27612 18.8907 5.153 19.4537 6.43042 19.4537V23.0586C4.33025 23.0369 2.65228 22.2467 1.39651 20.6878C0.465502 19.497 0 18.2737 0 17.0179ZM8.08675 23.0586V19.4537L8.54142 19.3562C8.86619 19.2913 9.22344 19.1181 9.61316 18.8366C10.0029 18.5551 10.2843 18.1979 10.4576 17.7649C10.5658 17.4401 10.6199 17.0504 10.6199 16.5957C10.6416 16.5307 10.6524 16.3792 10.6524 16.141L14.1599 16.9854C14.1599 18.501 13.6186 19.8542 12.5361 21.045C11.2803 22.3874 9.7972 23.0586 8.08675 23.0586ZM8.08675 3.60494V0C9.51573 0 10.8473 0.562933 12.0814 1.6888C13.4671 2.98787 14.1599 4.47099 14.1599 6.13813L10.6199 7.04749V6.56033C10.6199 6.14896 10.5658 5.78089 10.4576 5.45612C10.1761 4.76328 9.66729 4.23282 8.93115 3.86475C8.36821 3.69154 8.08675 3.60494 8.08675 3.60494Z" fill="var(--fill-0, white)"/>
</g>
<path id="Vector 4" d="M22.0408 11.5053C21.9814 11.1762 21.5877 11.0339 21.4198 10.6819C21.3735 10.5856 21.3474 10.4756 21.3571 10.3566C21.4195 9.82019 21.706 9.76423 21.7256 9.24242C21.768 8.71324 22.1071 8.28651 22.0984 8.05652C22.1005 7.82415 22.3623 7.88899 22.4331 7.591C22.5128 7.29442 22.6385 7.14393 22.824 6.93961C23.0119 6.73466 23.4315 6.05258 23.5659 5.7959C23.7054 5.53943 23.9496 5.2982 24.0592 5.1374C24.0989 5.08357 24.1244 5.04975 24.1483 5.01669C24.1547 5.00808 24.1627 4.99701 24.1605 5C24.1605 5 24.1605 5 24.1605 5C24.1605 5 24.1605 5 24.1605 5C24.1605 5 24.1605 5 24.1605 5C24.1627 4.99685 24.1542 5.00909 24.1443 5.02411C24.0885 5.1083 24.01 5.22996 23.9358 5.38987C23.808 5.69519 23.7571 5.7044 23.5894 6.1093C23.428 6.52164 23.4352 6.8114 23.2086 7.26132C22.9641 7.7082 23.2866 7.95336 22.9368 8.55249C22.5653 9.16028 23.0279 9.36643 23.1598 9.91414C23.1949 10.0503 23.2165 10.1861 23.2346 10.3146C23.2786 10.6927 23.3498 11.072 23.5809 11.2836C23.6151 11.3148 23.6524 11.3477 23.6929 11.383C23.969 11.6232 24.5247 12.081 24.7211 12.8021C24.7695 12.9754 24.8165 13.1534 24.8549 13.3354C24.992 13.9671 25.0098 14.6419 24.8048 15.1989C24.5506 15.9177 24.1032 16.8145 23.8906 17.2194C23.6762 17.6221 23.6408 17.7257 23.4837 18.1283C23.3938 18.3563 23.2232 18.6633 23.0965 18.9161C23.0296 19.0495 23.0522 19.0165 23.1029 18.8844C23.1786 18.6828 23.2415 18.5228 23.2579 18.4083C23.2841 18.1819 23.2627 18.0775 23.3694 17.8237C23.485 17.5738 23.3924 17.4021 23.4307 17.2507C23.4679 17.0968 23.5886 17.1298 23.6301 16.3112C23.6428 15.4932 23.5892 15.0729 23.5529 14.7908C23.5138 14.5349 23.6092 14.0194 23.4708 13.6635C23.4595 13.6342 23.4469 13.607 23.4329 13.5819C23.2883 13.2721 22.9772 12.8569 22.5313 12.5187C22.4798 12.4781 22.4302 12.441 22.3845 12.4099C21.9756 12.1139 22.1352 11.9293 22.0408 11.5053Z" fill="var(--stroke-0, white)"/>
</g>
</svg>
