<svg width="114" height="24" viewBox="0 0 114 24" fill="none" xmlns="http://www.w3.org/2000/svg">
<path d="M98.0939 21.8769C98.03 21.8769 97.998 21.813 97.998 21.6852C97.998 21.5574 98.03 21.4936 98.0939 21.4936C98.7754 21.4936 99.2653 21.4403 99.5635 21.3338C99.8829 21.2273 100.096 21.025 100.202 20.7268C100.309 20.4073 100.362 19.9281 100.362 19.2892V4.49742C100.362 3.85847 100.309 3.38991 100.202 3.09173C100.096 2.79355 99.8829 2.59122 99.5635 2.48472C99.244 2.35693 98.7541 2.29304 98.0939 2.29304C98.03 2.29304 97.998 2.22914 97.998 2.10135C97.998 1.97356 98.03 1.90967 98.0939 1.90967H111.64C111.853 1.90967 111.959 2.00551 111.959 2.19719L112.023 6.44623C112.023 6.48882 111.959 6.52077 111.831 6.54207C111.725 6.56337 111.661 6.54207 111.64 6.47818C111.299 5.24287 110.724 4.32704 109.915 3.73068C109.105 3.13433 108.04 2.83615 106.72 2.83615H105.761C105.122 2.83615 104.654 2.97459 104.356 3.25147C104.057 3.52835 103.908 3.95431 103.908 4.52937V19.1614C103.908 19.779 104.025 20.2369 104.26 20.5351C104.494 20.8333 104.867 20.9824 105.378 20.9824H106.432C108.093 20.9824 109.425 20.6416 110.426 19.9601C111.427 19.2785 112.161 18.2242 112.63 16.7973C112.63 16.7547 112.673 16.7334 112.758 16.7334C112.822 16.7334 112.875 16.7547 112.918 16.7973C112.981 16.8186 113.013 16.8398 113.013 16.8611C112.8 18.5224 112.694 20.0346 112.694 21.3977C112.694 21.5681 112.662 21.6959 112.598 21.7811C112.534 21.845 112.406 21.8769 112.215 21.8769H98.0939ZM110.426 14.7526C110.426 13.8794 110.085 13.1978 109.403 12.708C108.743 12.1968 107.785 11.9412 106.528 11.9412H102.215V11.0467H106.56C107.795 11.0467 108.743 10.8337 109.403 10.4077C110.064 9.98176 110.394 9.38541 110.394 8.61866C110.394 8.55477 110.447 8.52282 110.553 8.52282C110.681 8.52282 110.745 8.55477 110.745 8.61866L110.713 11.4939L110.745 13.0274C110.788 13.7516 110.809 14.3266 110.809 14.7526C110.809 14.7952 110.745 14.8165 110.617 14.8165C110.49 14.8165 110.426 14.7952 110.426 14.7526Z" fill="white"/>
<path d="M80.0958 21.8769C80.0319 21.8769 80 21.813 80 21.6852C80 21.5574 80.0319 21.4936 80.0958 21.4936C80.7774 21.4936 81.2672 21.4403 81.5654 21.3338C81.8849 21.2273 82.0979 21.025 82.2044 20.7268C82.3109 20.4073 82.3641 19.9281 82.3641 19.2892V4.49742C82.3641 3.85847 82.3109 3.38991 82.2044 3.09173C82.0979 2.79355 81.8849 2.59122 81.5654 2.48472C81.2459 2.35693 80.7561 2.29304 80.0958 2.29304C80.0319 2.29304 80 2.22914 80 2.10135C80 1.97356 80.0319 1.90967 80.0958 1.90967H93.6416C93.8546 1.90967 93.9611 2.00551 93.9611 2.19719L94.025 6.44623C94.025 6.48882 93.9611 6.52077 93.8333 6.54207C93.7268 6.56337 93.6629 6.54207 93.6416 6.47818C93.3009 5.24287 92.7258 4.32704 91.9165 3.73068C91.1071 3.13433 90.0422 2.83615 88.7217 2.83615H87.7633C87.1243 2.83615 86.6557 2.97459 86.3576 3.25147C86.0594 3.52835 85.9103 3.95431 85.9103 4.52937V19.1614C85.9103 19.779 86.0274 20.2369 86.2617 20.5351C86.496 20.8333 86.8687 20.9824 87.3799 20.9824H88.4342C90.0954 20.9824 91.4266 20.6416 92.4276 19.9601C93.4286 19.2785 94.1634 18.2242 94.632 16.7973C94.632 16.7547 94.6746 16.7334 94.7598 16.7334C94.8237 16.7334 94.8769 16.7547 94.9195 16.7973C94.9834 16.8186 95.0154 16.8398 95.0154 16.8611C94.8024 18.5224 94.6959 20.0346 94.6959 21.3977C94.6959 21.5681 94.664 21.6959 94.6001 21.7811C94.5362 21.845 94.4084 21.8769 94.2167 21.8769H80.0958ZM92.4276 14.7526C92.4276 13.8794 92.0868 13.1978 91.4053 12.708C90.745 12.1968 89.7866 11.9412 88.53 11.9412H84.2171V11.0467H88.562C89.7973 11.0467 90.745 10.8337 91.4053 10.4077C92.0655 9.98176 92.3957 9.38541 92.3957 8.61866C92.3957 8.55477 92.4489 8.52282 92.5554 8.52282C92.6832 8.52282 92.7471 8.55477 92.7471 8.61866L92.7151 11.4939L92.7471 13.0274C92.7897 13.7516 92.811 14.3266 92.811 14.7526C92.811 14.7952 92.7471 14.8165 92.6193 14.8165C92.4915 14.8165 92.4276 14.7952 92.4276 14.7526Z" fill="white"/>
<path d="M63.0939 21.8769C63.03 21.8769 62.998 21.813 62.998 21.6852C62.998 21.5574 63.03 21.4936 63.0939 21.4936C63.8393 21.4936 64.3824 21.4403 64.7232 21.3338C65.064 21.2273 65.2876 21.025 65.3941 20.7268C65.5219 20.4073 65.5858 19.9281 65.5858 19.2892V4.49742C65.5858 3.85847 65.5326 3.38991 65.4261 3.09173C65.3196 2.79355 65.1066 2.59122 64.7871 2.48472C64.4676 2.35693 63.9778 2.29304 63.3175 2.29304C63.2536 2.29304 63.2217 2.22914 63.2217 2.10135C63.2217 1.97356 63.2536 1.90967 63.3175 1.90967H76.8633C77.0763 1.90967 77.1828 2.00551 77.1828 2.19719L77.2467 6.44623C77.2467 6.48882 77.1828 6.52077 77.055 6.54207C76.9485 6.56337 76.8846 6.54207 76.8633 6.47818C76.5225 5.24287 75.9475 4.32704 75.1381 3.73068C74.3288 3.13433 73.2639 2.83615 71.9434 2.83615H70.985C70.346 2.83615 69.8774 2.97459 69.5793 3.25147C69.2811 3.52835 69.132 3.95431 69.132 4.52937V19.1614C69.132 19.8216 69.2172 20.3115 69.3876 20.631C69.558 20.9504 69.8774 21.1741 70.346 21.3019C70.8146 21.4297 71.5494 21.4936 72.5504 21.4936C72.593 21.4936 72.6143 21.5574 72.6143 21.6852C72.6143 21.813 72.593 21.8769 72.5504 21.8769C71.6771 21.8769 70.9956 21.8663 70.5057 21.845L67.2471 21.813L64.851 21.845C64.425 21.8663 63.8393 21.8769 63.0939 21.8769ZM75.2659 15.104C75.2659 14.2521 74.9252 13.5812 74.2436 13.0913C73.5834 12.5802 72.6356 12.3246 71.4003 12.3246H67.4388V11.4301H71.4322C72.6675 11.4301 73.6047 11.2171 74.2436 10.7911C74.9039 10.3438 75.234 9.73683 75.234 8.97009C75.234 8.92749 75.2979 8.90619 75.4257 8.90619C75.5535 8.90619 75.6174 8.92749 75.6174 8.97009L75.5854 11.8773C75.5854 12.5589 75.5961 13.07 75.6174 13.4108L75.6493 15.104C75.6493 15.1679 75.5854 15.1999 75.4576 15.1999C75.3298 15.1999 75.2659 15.1679 75.2659 15.104Z" fill="white"/>
<path d="M45.7247 21.8769C45.6609 21.8769 45.6289 21.813 45.6289 21.6852C45.6289 21.5574 45.6609 21.4936 45.7247 21.4936C46.4702 21.4936 47.0133 21.4403 47.3541 21.3338C47.6949 21.2273 47.9185 21.025 48.025 20.7268C48.1528 20.4073 48.2167 19.9281 48.2167 19.2892V4.49742C48.2167 3.85847 48.1634 3.38991 48.0569 3.09173C47.9504 2.79355 47.7374 2.59122 47.418 2.48472C47.0985 2.35693 46.6086 2.29304 45.9484 2.29304C45.8845 2.29304 45.8525 2.22914 45.8525 2.10135C45.8525 1.97356 45.8845 1.90967 45.9484 1.90967H59.4942C59.7072 1.90967 59.8136 2.00551 59.8136 2.19719L59.8775 6.44623C59.8775 6.48882 59.8136 6.52077 59.6859 6.54207C59.5794 6.56337 59.5155 6.54207 59.4942 6.47818C59.1534 5.24287 58.5783 4.32704 57.769 3.73068C56.9597 3.13433 55.8947 2.83615 54.5742 2.83615H53.6158C52.9769 2.83615 52.5083 2.97459 52.2101 3.25147C51.9119 3.52835 51.7628 3.95431 51.7628 4.52937V19.1614C51.7628 19.8216 51.848 20.3115 52.0184 20.631C52.1888 20.9504 52.5083 21.1741 52.9769 21.3019C53.4454 21.4297 54.1802 21.4936 55.1812 21.4936C55.2238 21.4936 55.2451 21.5574 55.2451 21.6852C55.2451 21.813 55.2238 21.8769 55.1812 21.8769C54.308 21.8769 53.6265 21.8663 53.1366 21.845L49.8779 21.813L47.4819 21.845C47.0559 21.8663 46.4702 21.8769 45.7247 21.8769ZM57.8968 15.104C57.8968 14.2521 57.556 13.5812 56.8745 13.0913C56.2142 12.5802 55.2664 12.3246 54.0311 12.3246H50.0696V11.4301H54.0631C55.2984 11.4301 56.2355 11.2171 56.8745 10.7911C57.5347 10.3438 57.8648 9.73683 57.8648 8.97009C57.8648 8.92749 57.9287 8.90619 58.0565 8.90619C58.1843 8.90619 58.2482 8.92749 58.2482 8.97009L58.2163 11.8773C58.2163 12.5589 58.2269 13.07 58.2482 13.4108L58.2802 15.104C58.2802 15.1679 58.2163 15.1999 58.0885 15.1999C57.9607 15.1999 57.8968 15.1679 57.8968 15.104Z" fill="white"/>
<path d="M33.585 0C34.9861 0 36.2609 0.26016 37.4082 0.780273C38.5655 1.30034 39.5601 2.05404 40.3926 3.04102C41.2352 4.0281 41.8859 5.22205 42.3428 6.62305C42.8098 8.01355 43.043 9.59555 43.043 11.3682V12.4668C43.043 14.2288 42.8143 15.8108 42.3574 17.2119C41.9006 18.6128 41.2562 19.8069 40.4238 20.7939C39.5913 21.7705 38.5959 22.5189 37.4385 23.0391C36.2913 23.5591 35.0172 23.8193 33.6162 23.8193C32.2252 23.8193 30.9504 23.5592 29.793 23.0391C28.6458 22.519 27.6512 21.7703 26.8086 20.7939C25.966 19.8069 25.3108 18.6129 24.8438 17.2119C24.3869 15.8108 24.1582 14.2288 24.1582 12.4668V11.3682C24.1582 9.59555 24.3869 8.01355 24.8438 6.62305C25.3006 5.22219 25.9449 4.02803 26.7773 3.04102C27.62 2.05388 28.6154 1.30039 29.7627 0.780273C30.92 0.260209 32.1941 4.92861e-05 33.585 0ZM34.9561 1.40039C34.9218 1.44987 34.884 1.5005 34.8271 1.58105C34.6701 1.82178 34.3209 2.18354 34.1211 2.56738C33.9286 2.95182 33.3287 3.97222 33.0596 4.2793C32.7941 4.58505 32.6131 4.81021 32.499 5.25391C32.3977 5.7 32.0226 5.60429 32.0195 5.95215C32.0312 6.29661 31.547 6.93507 31.4863 7.72656C31.4582 8.50761 31.0483 8.59173 30.959 9.39453C30.9451 9.57272 30.9815 9.7376 31.0479 9.88184C31.2882 10.4085 31.8522 10.6219 31.9375 11.1143C32.0724 11.7488 31.8444 12.0258 32.4297 12.4688C32.4951 12.5152 32.566 12.5711 32.6396 12.6318C33.2781 13.1381 33.7236 13.7599 33.9307 14.2236C33.9506 14.261 33.9693 14.3012 33.9854 14.3447C34.1835 14.8774 34.0466 15.65 34.1025 16.0332C34.1545 16.4554 34.2311 17.0847 34.2129 18.3086C34.1536 19.5331 33.9811 19.4851 33.9277 19.7148C33.8728 19.9416 34.0053 20.1991 33.8398 20.5732C33.6871 20.953 33.7181 21.1096 33.6807 21.4482C33.6572 21.6196 33.5672 21.8595 33.459 22.1611C33.3863 22.3588 33.3536 22.4084 33.4492 22.209C33.6306 21.8307 33.8752 21.3706 34.0039 21.0293C34.2288 20.4268 34.279 20.2707 34.5859 19.668C34.8905 19.0616 35.5316 17.7195 35.8955 16.6436C36.189 15.8097 36.1632 14.7992 35.9668 13.8535C35.9119 13.5813 35.8447 13.3149 35.7754 13.0557C35.4941 11.9762 34.6981 11.2913 34.3027 10.9316C34.2449 10.8789 34.1923 10.8288 34.1436 10.7822C33.8126 10.4654 33.7104 9.8971 33.6475 9.33105C33.6215 9.13902 33.5901 8.93583 33.54 8.73242C33.351 7.91279 32.6889 7.6031 33.2207 6.69336C33.721 5.79712 33.2601 5.43011 33.6094 4.76172C33.9339 4.08823 33.9243 3.65334 34.1553 3.03613C34.3953 2.43038 34.4684 2.41589 34.6514 1.95898C34.7577 1.7198 34.8703 1.53709 34.9502 1.41113C34.9608 1.39438 34.9701 1.38001 34.9727 1.37598C34.9702 1.37951 34.9628 1.39097 34.9561 1.40039Z" fill="white"/>
<path d="M12.0762 1.64526C13.0772 1.64526 14.0889 1.73046 15.1112 1.90085C16.1548 2.04993 16.9855 2.25227 17.6031 2.50785C17.7948 2.57175 17.912 2.65694 17.9546 2.76343C18.0185 2.84862 18.061 3.00836 18.0823 3.24264L18.4977 7.68336C18.4977 7.74726 18.4444 7.78985 18.3379 7.81115C18.2314 7.83245 18.1569 7.8005 18.1143 7.71531C17.5179 5.96884 16.666 4.63769 15.5585 3.72186C14.451 2.78473 13.1198 2.31616 11.565 2.31616C10.1167 2.31616 8.81754 2.71018 7.66743 3.49823C6.53861 4.26497 5.64408 5.37248 4.98383 6.82078C4.34488 8.26907 4.0254 9.96229 4.0254 11.9004C4.0254 13.8599 4.35552 15.5851 5.01577 17.076C5.69732 18.5455 6.6238 19.685 7.79522 20.4944C8.98793 21.2824 10.351 21.6764 11.8845 21.6764C13.3541 21.6764 14.5894 21.2824 15.5904 20.4944C16.5915 19.685 17.5392 18.3645 18.4338 16.5328C18.4551 16.469 18.519 16.4477 18.6255 16.469C18.7319 16.4903 18.7852 16.5329 18.7852 16.5967L18.306 20.5582C18.2634 20.8138 18.2208 20.9842 18.1782 21.0694C18.1356 21.1333 18.0185 21.2078 17.8268 21.293C15.8673 21.9959 13.8866 22.3473 11.8845 22.3473C9.60558 22.3473 7.56093 21.9213 5.75057 21.0694C3.9615 20.1962 2.55581 18.9822 1.53349 17.4274C0.511162 15.8726 0 14.1048 0 12.1241C0 10.1007 0.521811 8.30102 1.56543 6.72493C2.63035 5.12755 4.07864 3.8816 5.91031 2.98706C7.76327 2.09253 9.81857 1.64526 12.0762 1.64526Z" fill="white"/>
</svg>
