<svg width="114" height="24" viewBox="0 0 114 24" fill="none" xmlns="http://www.w3.org/2000/svg">
<path d="M98.0958 21.8769C98.0319 21.8769 98 21.813 98 21.6852C98 21.5574 98.0319 21.4936 98.0958 21.4936C98.7774 21.4936 99.2672 21.4403 99.5654 21.3338C99.8849 21.2273 100.098 21.025 100.204 20.7268C100.311 20.4073 100.364 19.9281 100.364 19.2892V4.49742C100.364 3.85847 100.311 3.38991 100.204 3.09173C100.098 2.79355 99.8849 2.59122 99.5654 2.48472C99.2459 2.35693 98.7561 2.29304 98.0958 2.29304C98.0319 2.29304 98 2.22914 98 2.10135C98 1.97356 98.0319 1.90967 98.0958 1.90967H111.642C111.855 1.90967 111.961 2.00551 111.961 2.19719L112.025 6.44623C112.025 6.48882 111.961 6.52077 111.833 6.54207C111.727 6.56337 111.663 6.54207 111.642 6.47818C111.301 5.24287 110.726 4.32704 109.916 3.73068C109.107 3.13433 108.042 2.83615 106.722 2.83615H105.763C105.124 2.83615 104.656 2.97459 104.358 3.25147C104.059 3.52835 103.91 3.95431 103.91 4.52937V19.1614C103.91 19.779 104.027 20.2369 104.262 20.5351C104.496 20.8333 104.869 20.9824 105.38 20.9824H106.434C108.095 20.9824 109.427 20.6416 110.428 19.9601C111.429 19.2785 112.163 18.2242 112.632 16.7973C112.632 16.7547 112.675 16.7334 112.76 16.7334C112.824 16.7334 112.877 16.7547 112.92 16.7973C112.983 16.8186 113.015 16.8398 113.015 16.8611C112.802 18.5224 112.696 20.0346 112.696 21.3977C112.696 21.5681 112.664 21.6959 112.6 21.7811C112.536 21.845 112.408 21.8769 112.217 21.8769H98.0958ZM110.428 14.7526C110.428 13.8794 110.087 13.1978 109.405 12.708C108.745 12.1968 107.787 11.9412 106.53 11.9412H102.217V11.0467H106.562C107.797 11.0467 108.745 10.8337 109.405 10.4077C110.066 9.98176 110.396 9.38541 110.396 8.61866C110.396 8.55477 110.449 8.52282 110.555 8.52282C110.683 8.52282 110.747 8.55477 110.747 8.61866L110.715 11.4939L110.747 13.0274C110.79 13.7516 110.811 14.3266 110.811 14.7526C110.811 14.7952 110.747 14.8165 110.619 14.8165C110.492 14.8165 110.428 14.7952 110.428 14.7526Z" fill="#C1C1C1"/>
<path d="M80.0958 21.8769C80.0319 21.8769 80 21.813 80 21.6852C80 21.5574 80.0319 21.4936 80.0958 21.4936C80.7774 21.4936 81.2672 21.4403 81.5654 21.3338C81.8849 21.2273 82.0979 21.025 82.2044 20.7268C82.3109 20.4073 82.3641 19.9281 82.3641 19.2892V4.49742C82.3641 3.85847 82.3109 3.38991 82.2044 3.09173C82.0979 2.79355 81.8849 2.59122 81.5654 2.48472C81.2459 2.35693 80.7561 2.29304 80.0958 2.29304C80.0319 2.29304 80 2.22914 80 2.10135C80 1.97356 80.0319 1.90967 80.0958 1.90967H93.6416C93.8546 1.90967 93.9611 2.00551 93.9611 2.19719L94.025 6.44623C94.025 6.48882 93.9611 6.52077 93.8333 6.54207C93.7268 6.56337 93.6629 6.54207 93.6416 6.47818C93.3009 5.24287 92.7258 4.32704 91.9165 3.73068C91.1071 3.13433 90.0422 2.83615 88.7217 2.83615H87.7633C87.1243 2.83615 86.6557 2.97459 86.3576 3.25147C86.0594 3.52835 85.9103 3.95431 85.9103 4.52937V19.1614C85.9103 19.779 86.0274 20.2369 86.2617 20.5351C86.496 20.8333 86.8687 20.9824 87.3799 20.9824H88.4342C90.0954 20.9824 91.4266 20.6416 92.4276 19.9601C93.4286 19.2785 94.1634 18.2242 94.632 16.7973C94.632 16.7547 94.6746 16.7334 94.7598 16.7334C94.8237 16.7334 94.8769 16.7547 94.9195 16.7973C94.9834 16.8186 95.0154 16.8398 95.0154 16.8611C94.8024 18.5224 94.6959 20.0346 94.6959 21.3977C94.6959 21.5681 94.664 21.6959 94.6001 21.7811C94.5362 21.845 94.4084 21.8769 94.2167 21.8769H80.0958ZM92.4276 14.7526C92.4276 13.8794 92.0868 13.1978 91.4053 12.708C90.745 12.1968 89.7866 11.9412 88.53 11.9412H84.2171V11.0467H88.562C89.7973 11.0467 90.745 10.8337 91.4053 10.4077C92.0655 9.98176 92.3957 9.38541 92.3957 8.61866C92.3957 8.55477 92.4489 8.52282 92.5554 8.52282C92.6832 8.52282 92.7471 8.55477 92.7471 8.61866L92.7151 11.4939L92.7471 13.0274C92.7897 13.7516 92.811 14.3266 92.811 14.7526C92.811 14.7952 92.7471 14.8165 92.6193 14.8165C92.4915 14.8165 92.4276 14.7952 92.4276 14.7526Z" fill="#C1C1C1"/>
<path d="M63.0958 21.8769C63.0319 21.8769 63 21.813 63 21.6852C63 21.5574 63.0319 21.4936 63.0958 21.4936C63.8413 21.4936 64.3844 21.4403 64.7252 21.3338C65.0659 21.2273 65.2896 21.025 65.3961 20.7268C65.5239 20.4073 65.5878 19.9281 65.5878 19.2892V4.49742C65.5878 3.85847 65.5345 3.38991 65.428 3.09173C65.3215 2.79355 65.1085 2.59122 64.7891 2.48472C64.4696 2.35693 63.9797 2.29304 63.3195 2.29304C63.2556 2.29304 63.2236 2.22914 63.2236 2.10135C63.2236 1.97356 63.2556 1.90967 63.3195 1.90967H76.8653C77.0783 1.90967 77.1847 2.00551 77.1847 2.19719L77.2486 6.44623C77.2486 6.48882 77.1847 6.52077 77.0569 6.54207C76.9505 6.56337 76.8866 6.54207 76.8653 6.47818C76.5245 5.24287 75.9494 4.32704 75.1401 3.73068C74.3308 3.13433 73.2658 2.83615 71.9453 2.83615H70.9869C70.348 2.83615 69.8794 2.97459 69.5812 3.25147C69.283 3.52835 69.1339 3.95431 69.1339 4.52937V19.1614C69.1339 19.8216 69.2191 20.3115 69.3895 20.631C69.5599 20.9504 69.8794 21.1741 70.3479 21.3019C70.8165 21.4297 71.5513 21.4936 72.5523 21.4936C72.5949 21.4936 72.6162 21.5574 72.6162 21.6852C72.6162 21.813 72.5949 21.8769 72.5523 21.8769C71.6791 21.8769 70.9976 21.8663 70.5077 21.845L67.249 21.813L64.853 21.845C64.427 21.8663 63.8413 21.8769 63.0958 21.8769ZM75.2679 15.104C75.2679 14.2521 74.9271 13.5812 74.2456 13.0913C73.5853 12.5802 72.6375 12.3246 71.4022 12.3246H67.4407V11.4301H71.4342C72.6695 11.4301 73.6066 11.2171 74.2456 10.7911C74.9058 10.3438 75.2359 9.73683 75.2359 8.97009C75.2359 8.92749 75.2998 8.90619 75.4276 8.90619C75.5554 8.90619 75.6193 8.92749 75.6193 8.97009L75.5874 11.8773C75.5874 12.5589 75.598 13.07 75.6193 13.4108L75.6513 15.104C75.6513 15.1679 75.5874 15.1999 75.4596 15.1999C75.3318 15.1999 75.2679 15.1679 75.2679 15.104Z" fill="#C1C1C1"/>
<path d="M45.7267 21.8769C45.6628 21.8769 45.6309 21.813 45.6309 21.6852C45.6309 21.5574 45.6628 21.4936 45.7267 21.4936C46.4721 21.4936 47.0153 21.4403 47.356 21.3338C47.6968 21.2273 47.9204 21.025 48.0269 20.7268C48.1547 20.4073 48.2186 19.9281 48.2186 19.2892V4.49742C48.2186 3.85847 48.1654 3.38991 48.0589 3.09173C47.9524 2.79355 47.7394 2.59122 47.4199 2.48472C47.1004 2.35693 46.6106 2.29304 45.9503 2.29304C45.8864 2.29304 45.8545 2.22914 45.8545 2.10135C45.8545 1.97356 45.8864 1.90967 45.9503 1.90967H59.4961C59.7091 1.90967 59.8156 2.00551 59.8156 2.19719L59.8795 6.44623C59.8795 6.48882 59.8156 6.52077 59.6878 6.54207C59.5813 6.56337 59.5174 6.54207 59.4961 6.47818C59.1553 5.24287 58.5803 4.32704 57.7709 3.73068C56.9616 3.13433 55.8967 2.83615 54.5762 2.83615H53.6178C52.9788 2.83615 52.5102 2.97459 52.2121 3.25147C51.9139 3.52835 51.7648 3.95431 51.7648 4.52937V19.1614C51.7648 19.8216 51.85 20.3115 52.0204 20.631C52.1908 20.9504 52.5102 21.1741 52.9788 21.3019C53.4474 21.4297 54.1822 21.4936 55.1832 21.4936C55.2258 21.4936 55.2471 21.5574 55.2471 21.6852C55.2471 21.813 55.2258 21.8769 55.1832 21.8769C54.31 21.8769 53.6284 21.8663 53.1385 21.845L49.8799 21.813L47.4838 21.845C47.0579 21.8663 46.4721 21.8769 45.7267 21.8769ZM57.8987 15.104C57.8987 14.2521 57.558 13.5812 56.8764 13.0913C56.2162 12.5802 55.2684 12.3246 54.0331 12.3246H50.0716V11.4301H54.065C55.3003 11.4301 56.2375 11.2171 56.8764 10.7911C57.5367 10.3438 57.8668 9.73683 57.8668 8.97009C57.8668 8.92749 57.9307 8.90619 58.0585 8.90619C58.1863 8.90619 58.2502 8.92749 58.2502 8.97009L58.2182 11.8773C58.2182 12.5589 58.2289 13.07 58.2502 13.4108L58.2821 15.104C58.2821 15.1679 58.2182 15.1999 58.0904 15.1999C57.9626 15.1999 57.8987 15.1679 57.8987 15.104Z" fill="#C1C1C1"/>
<path d="M33.585 0C34.9861 0 36.2609 0.26016 37.4082 0.780273C38.5655 1.30034 39.5601 2.05404 40.3926 3.04102C41.2352 4.0281 41.8859 5.22205 42.3428 6.62305C42.8098 8.01355 43.043 9.59555 43.043 11.3682V12.4668C43.043 14.2288 42.8143 15.8108 42.3574 17.2119C41.9006 18.6128 41.2562 19.8069 40.4238 20.7939C39.5913 21.7705 38.5959 22.5189 37.4385 23.0391C36.2913 23.5591 35.0172 23.8193 33.6162 23.8193C32.2252 23.8193 30.9504 23.5592 29.793 23.0391C28.6458 22.519 27.6512 21.7703 26.8086 20.7939C25.966 19.8069 25.3108 18.6129 24.8438 17.2119C24.3869 15.8108 24.1582 14.2288 24.1582 12.4668V11.3682C24.1582 9.59555 24.3869 8.01355 24.8438 6.62305C25.3006 5.22219 25.9449 4.02803 26.7773 3.04102C27.62 2.05388 28.6154 1.30039 29.7627 0.780273C30.92 0.260209 32.1941 4.92861e-05 33.585 0ZM34.9561 1.40039C34.9218 1.44987 34.884 1.5005 34.8271 1.58105C34.6701 1.82178 34.3209 2.18354 34.1211 2.56738C33.9286 2.95182 33.3287 3.97222 33.0596 4.2793C32.7941 4.58505 32.6131 4.81021 32.499 5.25391C32.3977 5.7 32.0226 5.60429 32.0195 5.95215C32.0312 6.29661 31.547 6.93507 31.4863 7.72656C31.4582 8.50761 31.0483 8.59173 30.959 9.39453C30.9451 9.57272 30.9815 9.7376 31.0479 9.88184C31.2882 10.4085 31.8522 10.6219 31.9375 11.1143C32.0724 11.7488 31.8444 12.0258 32.4297 12.4688C32.4951 12.5152 32.566 12.5711 32.6396 12.6318C33.2781 13.1381 33.7236 13.7599 33.9307 14.2236C33.9506 14.261 33.9693 14.3012 33.9854 14.3447C34.1835 14.8774 34.0466 15.65 34.1025 16.0332C34.1545 16.4554 34.2311 17.0847 34.2129 18.3086C34.1536 19.5331 33.9811 19.4851 33.9277 19.7148C33.8728 19.9416 34.0053 20.1991 33.8398 20.5732C33.6871 20.953 33.7181 21.1096 33.6807 21.4482C33.6572 21.6196 33.5672 21.8595 33.459 22.1611C33.3863 22.3588 33.3536 22.4084 33.4492 22.209C33.6306 21.8307 33.8752 21.3706 34.0039 21.0293C34.2288 20.4268 34.279 20.2707 34.5859 19.668C34.8905 19.0616 35.5316 17.7195 35.8955 16.6436C36.189 15.8097 36.1632 14.7992 35.9668 13.8535C35.9119 13.5813 35.8447 13.3149 35.7754 13.0557C35.4941 11.9762 34.6981 11.2913 34.3027 10.9316C34.2449 10.8789 34.1923 10.8288 34.1436 10.7822C33.8126 10.4654 33.7104 9.8971 33.6475 9.33105C33.6215 9.13902 33.5901 8.93583 33.54 8.73242C33.351 7.91279 32.6889 7.6031 33.2207 6.69336C33.721 5.79712 33.2601 5.43011 33.6094 4.76172C33.9339 4.08823 33.9243 3.65334 34.1553 3.03613C34.3953 2.43038 34.4684 2.41589 34.6514 1.95898C34.7577 1.7198 34.8703 1.53709 34.9502 1.41113C34.9608 1.39438 34.9701 1.38001 34.9727 1.37598C34.9702 1.37951 34.9628 1.39097 34.9561 1.40039Z" fill="#FAF9EF"/>
<path d="M12.0762 1.64526C13.0772 1.64526 14.0889 1.73046 15.1112 1.90085C16.1548 2.04993 16.9855 2.25227 17.6031 2.50785C17.7948 2.57175 17.912 2.65694 17.9546 2.76343C18.0185 2.84862 18.061 3.00836 18.0823 3.24264L18.4977 7.68336C18.4977 7.74726 18.4444 7.78985 18.3379 7.81115C18.2314 7.83245 18.1569 7.8005 18.1143 7.71531C17.5179 5.96884 16.666 4.63769 15.5585 3.72186C14.451 2.78473 13.1198 2.31616 11.565 2.31616C10.1167 2.31616 8.81754 2.71018 7.66743 3.49823C6.53861 4.26497 5.64408 5.37248 4.98383 6.82078C4.34488 8.26907 4.0254 9.96229 4.0254 11.9004C4.0254 13.8599 4.35552 15.5851 5.01577 17.076C5.69732 18.5455 6.6238 19.685 7.79522 20.4944C8.98793 21.2824 10.351 21.6764 11.8845 21.6764C13.3541 21.6764 14.5894 21.2824 15.5904 20.4944C16.5915 19.685 17.5392 18.3645 18.4338 16.5328C18.4551 16.469 18.519 16.4477 18.6255 16.469C18.7319 16.4903 18.7852 16.5329 18.7852 16.5967L18.306 20.5582C18.2634 20.8138 18.2208 20.9842 18.1782 21.0694C18.1356 21.1333 18.0185 21.2078 17.8268 21.293C15.8673 21.9959 13.8866 22.3473 11.8845 22.3473C9.60558 22.3473 7.56093 21.9213 5.75057 21.0694C3.9615 20.1962 2.55581 18.9822 1.53349 17.4274C0.511162 15.8726 0 14.1048 0 12.1241C0 10.1007 0.521811 8.30102 1.56543 6.72493C2.63035 5.12755 4.07864 3.8816 5.91031 2.98706C7.76327 2.09253 9.81857 1.64526 12.0762 1.64526Z" fill="#C1C1C1"/>
</svg>
