<svg width="117" height="28" viewBox="0 0 117 28" fill="none" xmlns="http://www.w3.org/2000/svg">
<path d="M101.609 23.9292C101.545 23.9292 101.513 23.8653 101.513 23.7375C101.513 23.6097 101.545 23.5458 101.609 23.5458C102.29 23.5458 102.78 23.4926 103.078 23.3861C103.398 23.2796 103.611 23.0772 103.717 22.7791C103.824 22.4596 103.877 21.9804 103.877 21.3414V6.54967C103.877 5.91072 103.824 5.44215 103.717 5.14398C103.611 4.8458 103.398 4.64346 103.078 4.53697C102.759 4.40918 102.269 4.34528 101.609 4.34528C101.545 4.34528 101.513 4.28139 101.513 4.1536C101.513 4.02581 101.545 3.96191 101.609 3.96191H115.154C115.367 3.96191 115.474 4.05776 115.474 4.24944L115.538 8.49847C115.538 8.54107 115.474 8.57302 115.346 8.59432C115.24 8.61561 115.176 8.59432 115.154 8.53042C114.814 7.29511 114.238 6.37928 113.429 5.78293C112.62 5.18657 111.555 4.88839 110.234 4.88839H109.276C108.637 4.88839 108.168 5.02683 107.87 5.30371C107.572 5.58059 107.423 6.00656 107.423 6.58162V21.2136C107.423 21.8313 107.54 22.2892 107.774 22.5874C108.009 22.8855 108.381 23.0346 108.893 23.0346H109.947C111.608 23.0346 112.939 22.6939 113.94 22.0123C114.941 21.3308 115.676 20.2765 116.145 18.8495C116.145 18.8069 116.187 18.7856 116.272 18.7856C116.336 18.7856 116.39 18.8069 116.432 18.8495C116.496 18.8708 116.528 18.8921 116.528 18.9134C116.315 20.5747 116.209 22.0869 116.209 23.45C116.209 23.6203 116.177 23.7481 116.113 23.8333C116.049 23.8972 115.921 23.9292 115.729 23.9292H101.609ZM113.94 16.8049C113.94 15.9316 113.6 15.2501 112.918 14.7602C112.258 14.249 111.299 13.9935 110.043 13.9935H105.73V13.0989H110.075C111.31 13.0989 112.258 12.8859 112.918 12.46C113.578 12.034 113.908 11.4377 113.908 10.6709C113.908 10.607 113.962 10.5751 114.068 10.5751C114.196 10.5751 114.26 10.607 114.26 10.6709L114.228 13.5462L114.26 15.0797C114.302 15.8038 114.324 16.3789 114.324 16.8049C114.324 16.8474 114.26 16.8687 114.132 16.8687C114.004 16.8687 113.94 16.8474 113.94 16.8049Z" fill="#FFF8EF"/>
<path d="M83.5929 23.9292C83.529 23.9292 83.4971 23.8653 83.4971 23.7375C83.4971 23.6097 83.529 23.5458 83.5929 23.5458C84.2745 23.5458 84.7643 23.4926 85.0625 23.3861C85.382 23.2796 85.595 23.0772 85.7015 22.7791C85.8079 22.4596 85.8612 21.9804 85.8612 21.3414V6.54967C85.8612 5.91072 85.8079 5.44215 85.7015 5.14398C85.595 4.8458 85.382 4.64346 85.0625 4.53697C84.743 4.40918 84.2532 4.34528 83.5929 4.34528C83.529 4.34528 83.4971 4.28139 83.4971 4.1536C83.4971 4.02581 83.529 3.96191 83.5929 3.96191H97.1387C97.3517 3.96191 97.4582 4.05776 97.4582 4.24944L97.5221 8.49847C97.5221 8.54107 97.4582 8.57302 97.3304 8.59432C97.2239 8.61561 97.16 8.59432 97.1387 8.53042C96.7979 7.29511 96.2229 6.37928 95.4135 5.78293C94.6042 5.18657 93.5393 4.88839 92.2188 4.88839H91.2603C90.6214 4.88839 90.1528 5.02683 89.8546 5.30371C89.5565 5.58059 89.4074 6.00656 89.4074 6.58162V21.2136C89.4074 21.8313 89.5245 22.2892 89.7588 22.5874C89.9931 22.8855 90.3658 23.0346 90.877 23.0346H91.9312C93.5925 23.0346 94.9237 22.6939 95.9247 22.0123C96.9257 21.3308 97.6605 20.2765 98.1291 18.8495C98.1291 18.8069 98.1717 18.7856 98.2569 18.7856C98.3208 18.7856 98.374 18.8069 98.4166 18.8495C98.4805 18.8708 98.5124 18.8921 98.5124 18.9134C98.2995 20.5747 98.193 22.0869 98.193 23.45C98.193 23.6203 98.161 23.7481 98.0971 23.8333C98.0332 23.8972 97.9054 23.9292 97.7138 23.9292H83.5929ZM95.9247 16.8049C95.9247 15.9316 95.5839 15.2501 94.9024 14.7602C94.2421 14.249 93.2837 13.9935 92.0271 13.9935H87.7142V13.0989H92.059C93.2943 13.0989 94.2421 12.8859 94.9024 12.46C95.5626 12.034 95.8927 11.4377 95.8927 10.6709C95.8927 10.607 95.946 10.5751 96.0525 10.5751C96.1803 10.5751 96.2442 10.607 96.2442 10.6709L96.2122 13.5462L96.2442 15.0797C96.2868 15.8038 96.3081 16.3789 96.3081 16.8049C96.3081 16.8474 96.2442 16.8687 96.1164 16.8687C95.9886 16.8687 95.9247 16.8474 95.9247 16.8049Z" fill="#FFF8EF"/>
<path d="M66.3449 23.9292C66.281 23.9292 66.249 23.8653 66.249 23.7375C66.249 23.6097 66.281 23.5458 66.3449 23.5458C67.0903 23.5458 67.6334 23.4926 67.9742 23.3861C68.315 23.2796 68.5386 23.0772 68.6451 22.7791C68.7729 22.4596 68.8368 21.9804 68.8368 21.3414V6.54967C68.8368 5.91072 68.7835 5.44215 68.677 5.14398C68.5706 4.8458 68.3576 4.64346 68.0381 4.53697C67.7186 4.40918 67.2287 4.34528 66.5685 4.34528C66.5046 4.34528 66.4727 4.28139 66.4727 4.1536C66.4727 4.02581 66.5046 3.96191 66.5685 3.96191H80.1143C80.3273 3.96191 80.4338 4.05776 80.4338 4.24944L80.4977 8.49847C80.4977 8.54107 80.4338 8.57302 80.306 8.59432C80.1995 8.61561 80.1356 8.59432 80.1143 8.53042C79.7735 7.29511 79.1985 6.37928 78.3891 5.78293C77.5798 5.18657 76.5149 4.88839 75.1944 4.88839H74.2359C73.597 4.88839 73.1284 5.02683 72.8302 5.30371C72.5321 5.58059 72.383 6.00656 72.383 6.58162V21.2136C72.383 21.8739 72.4682 22.3637 72.6385 22.6832C72.8089 23.0027 73.1284 23.2263 73.597 23.3541C74.0655 23.4819 74.8003 23.5458 75.8014 23.5458C75.844 23.5458 75.8653 23.6097 75.8653 23.7375C75.8653 23.8653 75.844 23.9292 75.8014 23.9292C74.9281 23.9292 74.2466 23.9185 73.7567 23.8972L70.4981 23.8653L68.102 23.8972C67.676 23.9185 67.0903 23.9292 66.3449 23.9292ZM78.5169 17.1563C78.5169 16.3043 78.1761 15.6334 77.4946 15.1436C76.8343 14.6324 75.8866 14.3768 74.6512 14.3768H70.6897V13.4823H74.6832C75.9185 13.4823 76.8556 13.2693 77.4946 12.8433C78.1548 12.3961 78.485 11.7891 78.485 11.0223C78.485 10.9797 78.5489 10.9584 78.6766 10.9584C78.8044 10.9584 78.8683 10.9797 78.8683 11.0223L78.8364 13.9296C78.8364 14.6111 78.847 15.1223 78.8683 15.4631L78.9003 17.1563C78.9003 17.2202 78.8364 17.2521 78.7086 17.2521C78.5808 17.2521 78.5169 17.2202 78.5169 17.1563Z" fill="#FFF8EF"/>
<path d="M49.0958 23.9292C49.0319 23.9292 49 23.8653 49 23.7375C49 23.6097 49.0319 23.5458 49.0958 23.5458C49.8413 23.5458 50.3844 23.4926 50.7252 23.3861C51.0659 23.2796 51.2896 23.0772 51.3961 22.7791C51.5239 22.4596 51.5878 21.9804 51.5878 21.3414V6.54967C51.5878 5.91072 51.5345 5.44215 51.428 5.14398C51.3215 4.8458 51.1085 4.64346 50.7891 4.53697C50.4696 4.40918 49.9797 4.34528 49.3195 4.34528C49.2556 4.34528 49.2236 4.28139 49.2236 4.1536C49.2236 4.02581 49.2556 3.96191 49.3195 3.96191H62.8653C63.0782 3.96191 63.1847 4.05776 63.1847 4.24944L63.2486 8.49847C63.2486 8.54107 63.1847 8.57302 63.0569 8.59432C62.9505 8.61561 62.8866 8.59432 62.8653 8.53042C62.5245 7.29511 61.9494 6.37928 61.1401 5.78293C60.3308 5.18657 59.2658 4.88839 57.9453 4.88839H56.9869C56.3479 4.88839 55.8794 5.02683 55.5812 5.30371C55.283 5.58059 55.1339 6.00656 55.1339 6.58162V21.2136C55.1339 21.8739 55.2191 22.3637 55.3895 22.6832C55.5599 23.0027 55.8794 23.2263 56.3479 23.3541C56.8165 23.4819 57.5513 23.5458 58.5523 23.5458C58.5949 23.5458 58.6162 23.6097 58.6162 23.7375C58.6162 23.8653 58.5949 23.9292 58.5523 23.9292C57.6791 23.9292 56.9976 23.9185 56.5077 23.8972L53.249 23.8653L50.853 23.8972C50.427 23.9185 49.8413 23.9292 49.0958 23.9292ZM61.2679 17.1563C61.2679 16.3043 60.9271 15.6334 60.2456 15.1436C59.5853 14.6324 58.6375 14.3768 57.4022 14.3768H53.4407V13.4823H57.4342C58.6695 13.4823 59.6066 13.2693 60.2456 12.8433C60.9058 12.3961 61.2359 11.7891 61.2359 11.0223C61.2359 10.9797 61.2998 10.9584 61.4276 10.9584C61.5554 10.9584 61.6193 10.9797 61.6193 11.0223L61.5874 13.9296C61.5874 14.6111 61.598 15.1223 61.6193 15.4631L61.6513 17.1563C61.6513 17.2202 61.5874 17.2521 61.4596 17.2521C61.3318 17.2521 61.2679 17.2202 61.2679 17.1563Z" fill="#FFF8EF"/>
<path d="M41.1443 3.62646C42.3577 4.32703 43.3316 5.18974 44.0652 6.21382C44.8074 7.24285 45.2919 8.39289 45.5193 9.66387C45.7556 10.94 45.7221 12.2994 45.4172 13.7411C45.1265 15.1788 44.5374 16.6655 43.6511 18.2006L43.1018 19.152C42.2207 20.678 41.2317 21.9337 40.1355 22.9186C39.0394 23.9034 37.8843 24.6154 36.6699 25.054C35.4607 25.4834 34.2244 25.6339 32.962 25.5056C31.7085 25.3824 30.475 24.9707 29.2617 24.2702C28.0571 23.5748 27.0831 22.712 26.3408 21.6829C25.6074 20.6589 25.1203 19.5133 24.8788 18.2464C24.6426 16.9702 24.6722 15.6086 24.9682 14.1618C25.2731 12.72 25.8661 11.2356 26.7471 9.70965L27.2964 8.7582C28.1827 7.22307 29.1717 5.96735 30.2626 4.99159C31.3587 4.00684 32.5138 3.29484 33.7282 2.85625C34.9516 2.42271 36.1903 2.26787 37.444 2.39107C38.7063 2.51935 39.9398 2.9311 41.1443 3.62646ZM41.6315 5.52479C41.577 5.55049 41.5191 5.57548 41.4295 5.61679C41.1732 5.74676 40.6898 5.88541 40.3249 6.11795C39.966 6.35463 38.9362 6.93837 38.5496 7.06975C38.1668 7.2018 37.8975 7.30631 37.5769 7.63351C37.2661 7.96917 36.9891 7.69872 36.8125 7.99846C36.6504 8.30263 35.9118 8.61341 35.4635 9.26855C35.0486 9.93087 34.6516 9.79881 34.1729 10.4494C34.0717 10.5967 34.0208 10.7578 34.0062 10.9158C33.951 11.4922 34.3327 11.9589 34.1604 12.428C33.96 13.0449 33.624 13.1708 33.9094 13.8471C33.9428 13.92 33.9763 14.0038 34.0097 14.0933C34.3095 14.851 34.3844 15.6122 34.3319 16.1173C34.3304 16.1596 34.3265 16.2038 34.3187 16.2496C34.2239 16.8099 33.7191 17.4106 33.5759 17.7704C33.4099 18.1621 33.1615 18.7453 32.5338 19.7961C31.8702 20.8269 31.7448 20.6991 31.5837 20.8714C31.4228 21.0403 31.4088 21.3295 31.0784 21.5709C30.7562 21.8234 30.7048 21.9744 30.503 22.249C30.397 22.3857 30.1992 22.5484 29.9546 22.7556C29.7929 22.8904 29.7397 22.917 29.9222 22.7921C30.2685 22.5552 30.7103 22.2791 30.9924 22.0478C31.4884 21.6385 31.61 21.5284 32.1772 21.1599C32.7441 20.7871 33.9704 19.9453 34.8235 19.1955C35.4945 18.6201 35.9775 17.732 36.2803 16.8149C36.3688 16.5517 36.4438 16.2874 36.5134 16.0282C36.8095 14.9528 36.4626 13.9615 36.3001 13.4524C36.2763 13.3778 36.2559 13.3082 36.2369 13.2434C36.1087 12.8036 36.3044 12.2603 36.5329 11.7386C36.6064 11.5594 36.6808 11.3677 36.7392 11.1665C36.9852 10.3621 36.5667 9.7629 37.4821 9.24096C38.3636 8.71496 38.1479 8.16663 38.7846 7.76244C39.4024 7.34145 39.6114 6.96 40.1201 6.54099C40.6308 6.13638 40.7015 6.16042 41.0883 5.8562C41.3 5.70221 41.4889 5.6003 41.621 5.53116C41.6386 5.52195 41.6538 5.51415 41.6581 5.51194C41.6542 5.51379 41.642 5.51997 41.6315 5.52479Z" fill="#FFF8EF"/>
<path d="M12.0762 3.69824C13.0772 3.69824 14.0889 3.78344 15.1112 3.95382C16.1548 4.10291 16.9855 4.30525 17.6031 4.56083C17.7948 4.62472 17.912 4.70992 17.9546 4.81641C18.0185 4.9016 18.061 5.06134 18.0823 5.29562L18.4977 9.73634C18.4977 9.80024 18.4444 9.84283 18.3379 9.86413C18.2314 9.88543 18.1569 9.85348 18.1143 9.76829C17.5179 8.02182 16.666 6.69067 15.5585 5.77484C14.451 4.83771 13.1198 4.36914 11.565 4.36914C10.1167 4.36914 8.81754 4.76316 7.66743 5.5512C6.53861 6.31795 5.64408 7.42546 4.98383 8.87375C4.34488 10.322 4.0254 12.0153 4.0254 13.9534C4.0254 15.9129 4.35552 17.638 5.01577 19.1289C5.69732 20.5985 6.6238 21.738 7.79522 22.5473C8.98793 23.3354 10.351 23.7294 11.8845 23.7294C13.3541 23.7294 14.5894 23.3354 15.5904 22.5473C16.5915 21.738 17.5392 20.4175 18.4338 18.5858C18.4551 18.5219 18.519 18.5006 18.6255 18.5219C18.7319 18.5432 18.7852 18.5858 18.7852 18.6497L18.306 22.6112C18.2634 22.8668 18.2208 23.0372 18.1782 23.1224C18.1356 23.1863 18.0185 23.2608 17.8268 23.346C15.8673 24.0489 13.8866 24.4003 11.8845 24.4003C9.60558 24.4003 7.56093 23.9743 5.75057 23.1224C3.9615 22.2492 2.55581 21.0351 1.53349 19.4804C0.511162 17.9256 0 16.1578 0 14.1771C0 12.1537 0.521811 10.354 1.56543 8.77791C2.63035 7.18053 4.07864 5.93457 5.91031 5.04004C7.76327 4.14551 9.81857 3.69824 12.0762 3.69824Z" fill="#FFF8EF"/>
</svg>
