<svg width="116" height="25" viewBox="0 0 116 25" fill="none" xmlns="http://www.w3.org/2000/svg">
<g filter="url(#filter0_g_41_1180)">
<path d="M114.903 22.2881V23.9725H101.763V22.2881H114.903ZM102.357 0.614258V23.9725H100.384V0.614258H102.357ZM113.266 11.0902V12.7747H101.763V11.0902H113.266ZM114.822 0.614258V2.31479H101.763V0.614258H114.822Z" fill="white"/>
<path d="M96.1965 22.2881V23.9725H83.0574V22.2881H96.1965ZM83.651 0.614258V23.9725H81.6777V0.614258H83.651ZM94.5601 11.0902V12.7747H83.0574V11.0902H94.5601ZM96.1162 0.614258V2.31479H83.0574V0.614258H96.1162Z" fill="white"/>
<path d="M65.1696 0.614258V23.9725H63.1963V0.614258H65.1696ZM76.0466 11.3629V13.0635H64.5118V11.3629H76.0466ZM77.6669 0.614258V2.31479H64.5118V0.614258H77.6669Z" fill="white"/>
<path d="M46.6881 0.614258V23.9725H44.7148V0.614258H46.6881ZM57.5651 11.3629V13.0635H46.0304V11.3629H57.5651ZM59.1854 0.614258V2.31479H46.0304V0.614258H59.1854Z" fill="white"/>
<path d="M30.9609 0.293457C32.3619 0.293516 33.6361 0.553683 34.7832 1.07373C35.9405 1.5938 36.9351 2.34749 37.7676 3.33447C38.6102 4.32157 39.2609 5.51548 39.7178 6.9165C40.1848 8.30699 40.418 9.88901 40.418 11.6616V12.7603C40.418 14.5221 40.1892 16.1034 39.7324 17.5044C39.2755 18.9055 38.6314 20.1003 37.7988 21.0874C36.9663 22.0639 35.9708 22.8114 34.8135 23.3315C33.6663 23.8516 32.3922 24.1118 30.9912 24.1118C29.6003 24.1118 28.3254 23.8516 27.168 23.3315C26.021 22.8115 25.0261 22.0636 24.1836 21.0874C23.3409 20.1003 22.6858 18.9055 22.2188 17.5044C21.762 16.1034 21.5332 14.522 21.5332 12.7603V11.6616C21.5332 9.88901 21.7619 8.30699 22.2188 6.9165C22.6756 5.51553 23.3208 4.32154 24.1533 3.33447C24.9959 2.34749 25.9906 1.5938 27.1377 1.07373C28.2951 0.553624 29.57 0.293457 30.9609 0.293457ZM32.3301 1.69385C32.2958 1.74329 32.259 1.79405 32.2021 1.87451C32.0452 2.1152 31.6949 2.476 31.4951 2.85986C31.3028 3.24407 30.7027 4.26581 30.4336 4.57275C30.1681 4.87851 29.9881 5.10367 29.874 5.54736C29.7727 5.9933 29.3968 5.8972 29.3936 6.24463C29.4056 6.589 28.921 7.22825 28.8604 8.02002C28.8321 8.80085 28.4223 8.88521 28.333 9.68799C28.3192 9.86601 28.3566 10.0302 28.4229 10.1743C28.6633 10.7012 29.2263 10.9152 29.3115 11.4077C29.4465 12.0422 29.2184 12.3192 29.8037 12.7622C29.8691 12.8086 29.94 12.8645 30.0137 12.9253C30.6521 13.4316 31.0986 14.0524 31.3057 14.5161C31.3256 14.5536 31.3433 14.5945 31.3594 14.6382C31.5574 15.1707 31.4208 15.9423 31.4766 16.3257C31.5286 16.7479 31.6061 17.3776 31.5879 18.6021C31.5285 19.8273 31.355 19.7781 31.3018 20.0083C31.2469 20.2351 31.3793 20.4925 31.2139 20.8667C31.0613 21.2462 31.0921 21.4031 31.0547 21.7417C31.0311 21.9131 30.9412 22.1531 30.833 22.4546C30.7605 22.652 30.7276 22.7007 30.8232 22.5015C31.0046 22.1233 31.2492 21.6639 31.3779 21.3228C31.6029 20.7201 31.653 20.5642 31.96 19.9614C32.2644 19.3553 32.9055 18.013 33.2695 16.937C33.563 16.1032 33.5382 15.0926 33.3418 14.147C33.2869 13.8746 33.2187 13.6085 33.1494 13.3491C32.8682 12.2697 32.0731 11.5838 31.6777 11.2241C31.6199 11.1714 31.5664 11.1222 31.5176 11.0757C31.1866 10.7588 31.0844 10.1905 31.0215 9.62451C30.9955 9.43223 30.9643 9.22858 30.9141 9.0249C30.7249 8.20539 30.0629 7.89649 30.5947 6.98682C31.0954 6.09018 30.6336 5.72297 30.9834 5.0542C31.3079 4.38082 31.2984 3.94667 31.5293 3.32959C31.7692 2.72393 31.8425 2.70915 32.0254 2.25244C32.1317 2.01327 32.2443 1.83055 32.3242 1.70459C32.3381 1.68258 32.3494 1.66434 32.3467 1.66846C32.3446 1.67154 32.337 1.68406 32.3301 1.69385Z" fill="white"/>
<path d="M15.694 16.6892H17.6673C17.5069 18.2614 17.0737 19.6197 16.3678 20.764C15.662 21.8977 14.6994 22.7694 13.4801 23.379C12.2609 23.9886 10.7903 24.2935 9.06837 24.2935C7.74217 24.2935 6.53896 24.0421 5.45874 23.5394C4.38923 23.0368 3.46944 22.3255 2.69939 21.4058C1.92933 20.4753 1.33575 19.363 0.918637 18.0689C0.501525 16.7747 0.292969 15.3362 0.292969 13.7534V10.8336C0.292969 9.25068 0.501525 7.81752 0.918637 6.5341C1.33575 5.23998 1.93468 4.12768 2.71543 3.1972C3.49618 2.26672 4.43201 1.55014 5.52292 1.04747C6.61382 0.544794 7.84377 0.293457 9.21275 0.293457C10.8705 0.293457 12.3037 0.59827 13.5122 1.2079C14.7208 1.80683 15.6726 2.67314 16.3678 3.80683C17.0737 4.94052 17.5069 6.3095 17.6673 7.91378H15.694C15.5443 6.65175 15.2128 5.58223 14.6994 4.70522C14.186 3.82822 13.4748 3.15977 12.5657 2.69987C11.6673 2.22929 10.5497 1.99399 9.21275 1.99399C8.12185 1.99399 7.14858 2.20255 6.29297 2.61966C5.43735 3.03677 4.71008 3.6357 4.11115 4.41645C3.51222 5.18651 3.05233 6.11164 2.73147 7.19185C2.42131 8.27207 2.26623 9.47528 2.26623 10.8015V13.7534C2.26623 15.0368 2.41596 16.2186 2.71543 17.2988C3.01489 18.379 3.4534 19.3148 4.03094 20.1063C4.61917 20.8977 5.33575 21.5127 6.18067 21.9512C7.02559 22.3897 7.98816 22.609 9.06837 22.609C10.448 22.609 11.5978 22.3897 12.5176 21.9512C13.448 21.502 14.17 20.8389 14.6833 19.9619C15.1967 19.0849 15.5336 17.994 15.694 16.6892Z" fill="white"/>
</g>
<defs>
<filter id="filter0_g_41_1180" x="-0.000384957" y="0.000103325" width="115.196" height="24.5867" filterUnits="userSpaceOnUse" color-interpolation-filters="sRGB">
<feFlood flood-opacity="0" result="BackgroundImageFix"/>
<feBlend mode="normal" in="SourceGraphic" in2="BackgroundImageFix" result="shape"/>
<feTurbulence type="fractalNoise" baseFrequency="1.7044271230697632 1.7044271230697632" numOctaves="3" seed="3306" />
<feDisplacementMap in="shape" scale="0.58670741319656372" xChannelSelector="R" yChannelSelector="G" result="displacedImage" width="100%" height="100%" />
<feMerge result="effect1_texture_41_1180">
<feMergeNode in="displacedImage"/>
</feMerge>
</filter>
</defs>
</svg>
