<svg width="57" height="61" viewBox="0 0 57 61" fill="none" xmlns="http://www.w3.org/2000/svg">
<path d="M40.2126 9.44238C42.6433 10.8458 44.5941 12.5732 46.0635 14.6246C47.5505 16.6862 48.5216 18.9905 48.9773 21.5369C49.4505 24.0935 49.3817 26.8164 48.771 29.7048C48.1885 32.5849 47.0093 35.5627 45.2338 38.6379L44.1333 40.5442C42.3684 43.601 40.3878 46.116 38.1917 48.0891C35.9957 50.0622 33.6815 51.4887 31.2483 52.3674C28.8258 53.2276 26.3496 53.5287 23.8206 53.2717C21.3093 53.0248 18.8386 52.1996 16.408 50.7963C13.9948 49.403 12.0441 47.6757 10.557 45.614C9.08768 43.5626 8.11101 41.2678 7.62716 38.7297C7.15394 36.173 7.21411 33.4452 7.80726 30.5466C8.41802 27.6582 9.60573 24.6855 11.3706 21.6286L12.4712 19.7224C14.2467 16.6471 16.2273 14.1321 18.4127 12.1774C20.6088 10.2043 22.9238 8.77835 25.357 7.89967C27.8076 7.0313 30.2888 6.72011 32.8 6.96693C35.3288 7.22397 37.7996 8.04931 40.2126 9.44238ZM41.1867 13.2434C41.0777 13.2948 40.9632 13.3465 40.784 13.4292C40.2706 13.6896 39.302 13.9667 38.5708 14.4326C37.8522 14.9065 35.7875 16.0758 35.0131 16.3388C34.2462 16.6034 33.708 16.8142 33.0656 17.4697C32.443 18.1421 31.8884 17.5992 31.5347 18.1995C31.2107 18.8091 29.7299 19.4317 28.8316 20.7446C28.0004 22.0714 27.204 21.8065 26.2448 23.1099C26.0425 23.4049 25.9425 23.7274 25.9131 24.0438C25.8025 25.1987 26.5661 26.1342 26.2204 27.0741C25.8189 28.31 25.1456 28.5616 25.7173 29.9162C25.7843 30.0623 25.8525 30.2302 25.9195 30.4096C26.5201 31.9275 26.671 33.4524 26.5656 34.4644C26.5628 34.5493 26.5524 34.6377 26.5366 34.7295C26.3468 35.8521 25.3369 37.0542 25.05 37.7751C24.7173 38.5597 24.221 39.7292 22.963 41.8351C21.6329 43.9012 21.3817 43.6429 21.0587 43.9889C20.7364 44.3274 20.7082 44.9056 20.0463 45.389C19.4009 45.8949 19.2983 46.1978 18.8941 46.7479C18.6817 47.0217 18.2853 47.3474 17.7954 47.7622C17.4714 48.0324 17.365 48.0854 17.7307 47.8353C18.4243 47.3607 19.3092 46.8083 19.8743 46.3452C20.8681 45.525 21.1112 45.3051 22.2473 44.5669C23.3827 43.8202 25.8394 42.133 27.5488 40.6307C28.8931 39.478 29.861 37.6997 30.4675 35.8624C30.645 35.3349 30.7949 34.8054 30.9345 34.286C31.5277 32.1317 30.8339 30.1457 30.5083 29.1257C30.4607 28.9761 30.4184 28.8366 30.3803 28.7068C30.1234 27.8256 30.5147 26.7379 30.9725 25.6928C31.12 25.3332 31.2692 24.9484 31.3862 24.5447C31.8789 22.9335 31.0408 21.7349 32.8746 20.6894C34.6414 19.6353 34.2084 18.5364 35.485 17.7265C36.7227 16.8831 37.1411 16.1198 38.1602 15.2804C39.1834 14.4698 39.3243 14.5175 40.0994 13.9079C40.5234 13.5995 40.9015 13.396 41.1662 13.2575C41.2026 13.2384 41.2342 13.2225 41.2416 13.2187C41.2348 13.2219 41.2086 13.2334 41.1867 13.2434Z" fill="white"/>
</svg>

